<?xml version="1.0" standalone="no"?>
<!DOCTYPE svg PUBLIC "-//W3C//DTD SVG 20010904//EN"
 "http://www.w3.org/TR/2001/REC-SVG-20010904/DTD/svg10.dtd">
<svg version="1.0" xmlns="http://www.w3.org/2000/svg"
 width="474.000000pt" height="317.000000pt" viewBox="0 0 474.000000 317.000000"
 preserveAspectRatio="xMidYMid meet">

<g transform="translate(0.000000,317.000000) scale(0.100000,-0.100000)"
fill="#000000" stroke="none">
<path d="M0 1585 l0 -1585 456 0 c265 0 453 4 450 9 -3 5 1 12 10 15 22 9 24
8 24 -11 0 -15 2 -14 15 3 13 17 16 17 25 3 7 -13 28 -16 92 -17 50 -1 75 2
63 7 -17 7 -17 8 8 13 15 3 30 1 33 -3 3 -5 14 -4 25 1 15 9 21 7 25 -5 7 -17
34 -21 34 -5 0 6 16 10 36 10 21 0 33 -4 29 -10 -4 -6 10 -10 34 -10 29 0 41
4 41 14 0 8 13 17 30 21 16 4 32 11 35 16 10 15 23 10 21 -8 -2 -10 -13 -19
-24 -21 -12 -2 -22 -7 -22 -12 0 -4 37 -8 83 -8 68 1 84 4 95 19 7 11 19 19
25 19 7 0 4 -5 -6 -11 -37 -22 -1 -29 143 -29 109 0 150 3 154 13 4 9 7 9 12
0 7 -15 264 -18 264 -3 0 5 11 10 25 10 14 0 25 -4 25 -10 0 -6 46 -10 119
-10 105 0 120 2 124 17 4 17 5 17 6 0 1 -17 27 -17 461 -17 318 1 460 4 460
12 0 7 4 7 13 0 17 -14 216 -15 233 -1 10 9 14 9 14 0 0 -16 117 -15 123 2 4
9 6 9 6 0 1 -9 20 -13 62 -13 54 0 60 2 54 19 -7 22 3 51 17 51 6 0 8 -7 5
-15 -4 -8 -2 -17 3 -20 6 -4 10 -2 10 3 0 5 9 12 19 15 17 4 18 2 11 -18 -11
-30 -5 -35 43 -35 37 0 39 2 35 25 -4 19 -1 25 13 25 12 0 19 -7 19 -19 0 -10
7 -22 16 -25 9 -3 150 -6 315 -6 l299 0 0 1585 0 1585 -2370 0 -2370 0 0
-1585z m1533 1304 c-7 -7 -19 -8 -30 -4 -16 7 -15 9 7 15 30 8 38 4 23 -11z
m57 -10 c0 -6 -4 -7 -10 -4 -5 3 -10 11 -10 16 0 6 5 7 10 4 6 -3 10 -11 10
-16z m-188 -103 c-17 -10 -37 15 -20 25 6 4 7 12 4 18 -4 6 -4 16 0 23 5 7 12
-1 19 -23 10 -28 10 -35 -3 -43z m-117 28 c-11 -8 -25 -12 -32 -10 -7 3 -10
-1 -6 -10 3 -7 0 -14 -6 -14 -10 0 -13 9 -9 28 1 8 61 30 68 24 3 -2 -4 -10
-15 -18z m-101 -42 c-6 -4 -10 -17 -9 -30 1 -13 -2 -25 -7 -28 -4 -3 -8 0 -8
6 0 6 -12 15 -26 20 -14 6 -22 15 -19 20 4 6 11 8 16 5 5 -4 17 -1 26 4 20 12
44 15 27 3z m456 -47 c0 -9 7 -18 15 -21 38 -15 -8 -55 -47 -42 -7 3 -20 -3
-29 -14 -14 -15 -18 -16 -28 -4 -9 11 -6 15 16 22 16 5 39 8 52 9 13 0 26 6
28 13 3 7 -4 12 -16 12 -12 0 -21 2 -21 4 0 2 -3 11 -6 20 -4 12 0 16 15 16
12 0 21 -6 21 -15z m-324 -32 c-11 -11 -19 6 -11 24 8 17 8 17 12 0 3 -10 2
-21 -1 -24z m77 -5 c-2 -5 6 -7 19 -5 30 3 39 -38 9 -46 -14 -3 -21 1 -25 19
-4 13 -10 24 -15 24 -4 0 -6 12 -3 27 5 24 6 25 12 8 4 -11 6 -23 3 -27z m137
2 c0 -22 -26 -33 -48 -20 -15 8 -15 10 3 10 11 1 14 4 8 7 -19 7 -16 21 5 26
23 5 32 -1 32 -23z m-290 -46 c0 -12 -2 -12 -14 -2 -8 7 -12 16 -9 21 7 11 23
-2 23 -19z m30 12 c0 -3 -4 -8 -10 -11 -5 -3 -10 -1 -10 4 0 6 5 11 10 11 6 0
10 -2 10 -4z m85 -22 c0 -10 -8 -20 -19 -22 -10 -2 -16 0 -12 6 3 6 0 13 -6
15 -10 4 -9 8 2 16 20 14 35 8 35 -15z m135 5 c0 -5 -7 -5 -17 -2 -10 4 -14 2
-10 -4 3 -5 0 -10 -8 -10 -17 0 -17 0 -9 20 5 15 44 12 44 -4z m-530 1 c8 -5
11 -10 5 -10 -5 0 -17 5 -25 10 -8 5 -10 10 -5 10 6 0 17 -5 25 -10z m235 -10
c8 7 20 8 27 4 7 -5 21 -7 31 -6 21 4 24 -33 3 -53 -12 -12 -15 -11 -19 6 -8
29 -42 21 -41 -9 0 -12 -5 -22 -13 -22 -7 0 -13 -5 -13 -11 0 -5 -4 -8 -9 -5
-17 11 1 52 31 69 17 10 28 20 26 23 -3 3 -22 -5 -43 -17 l-37 -22 18 34 c14
26 19 30 22 16 3 -14 7 -16 17 -7z m430 0 c7 0 16 6 18 13 3 6 6 -9 6 -35 1
-36 4 -46 15 -42 8 3 16 -4 20 -18 11 -44 8 -48 -38 -48 -26 0 -51 -6 -60 -15
-10 -10 -17 -12 -21 -4 -4 6 -3 15 2 20 11 11 5 69 -7 69 -5 0 -11 -10 -13
-22 -2 -13 -5 -4 -6 19 -1 37 3 43 32 60 17 11 34 16 35 11 2 -4 10 -8 17 -8z
m48 0 c3 -11 1 -20 -4 -20 -5 0 -9 9 -9 20 0 11 2 20 4 20 2 0 6 -9 9 -20z
m-843 -59 c0 -6 -4 -13 -10 -16 -5 -3 -10 1 -10 9 0 9 5 16 10 16 6 0 10 -4
10 -9z m542 -23 c-8 -8 -9 -4 -5 13 4 13 8 18 11 10 2 -7 -1 -18 -6 -23z m91
1 c21 0 21 -1 -2 -10 -28 -11 -48 2 -35 22 6 10 9 10 12 1 2 -7 13 -12 25 -13z
m-339 -5 c4 -11 -1 -18 -14 -21 -11 -3 -20 -12 -20 -19 0 -8 -4 -14 -10 -14
-13 0 -13 17 0 25 6 4 8 15 5 26 -5 14 -2 19 13 19 11 0 23 -7 26 -16z m-311
-8 c12 -9 14 -16 7 -21 -5 -3 -8 -11 -5 -16 4 -5 1 -9 -4 -9 -6 0 -11 9 -11
20 0 11 -3 19 -7 19 -17 -3 -24 2 -18 11 8 13 16 12 38 -4z m61 -1 c-4 -8 -7
-15 -9 -15 -2 0 -5 7 -9 15 -3 9 0 15 9 15 9 0 12 -6 9 -15z m-134 -10 c-10
-12 -8 -16 11 -24 l24 -9 -27 -7 c-31 -8 -34 -15 -15 -34 10 -11 9 -13 -3 -9
-23 8 -8 98 17 98 3 0 0 -7 -7 -15z m583 0 c4 -6 11 -4 18 5 8 12 9 9 3 -10
-4 -14 -12 -28 -18 -32 -7 -5 -4 -8 7 -8 9 0 17 7 17 15 0 8 7 15 15 15 8 0
15 -7 15 -15 0 -9 10 -15 26 -15 15 0 23 -4 18 -11 -3 -6 -15 -9 -25 -6 -11 3
-29 -5 -45 -22 -15 -14 -24 -20 -19 -12 6 11 3 13 -13 9 -29 -8 -35 4 -24 46
7 24 6 38 -2 46 -8 9 -7 11 4 8 8 -2 18 -7 23 -13z m-277 -10 c8 -21 -6 -41
-17 -24 -12 19 -11 39 1 39 6 0 13 -7 16 -15z m444 10 c0 -10 -74 -35 -88 -30
-22 8 -4 24 28 23 17 -1 33 2 37 5 7 8 23 9 23 2z m26 -35 c0 -11 -6 -20 -13
-20 -17 0 -17 27 0 33 6 3 12 6 12 6 1 1 1 -8 1 -19z m-536 0 c0 -5 -4 -10
-10 -10 -5 0 -10 5 -10 10 0 6 5 10 10 10 6 0 10 -4 10 -10z m154 -34 c-3 -21
-11 -35 -18 -33 -6 3 -9 11 -7 18 2 8 4 19 5 24 3 16 18 37 23 32 2 -3 1 -21
-3 -41z m605 14 c-6 -5 -9 -17 -6 -29 3 -11 0 -24 -7 -29 -27 -19 -125 -43
-166 -40 -44 3 -45 4 -44 38 1 40 2 41 129 63 80 14 120 12 94 -3z m-649 -23
c0 -13 -5 -49 -11 -81 -7 -31 -8 -60 -4 -64 4 -4 10 -1 12 6 3 6 8 10 12 7 5
-2 33 4 64 15 70 25 82 25 60 2 -10 -11 -21 -17 -24 -16 -3 2 -5 -7 -4 -20 3
-21 -6 -28 -63 -54 -37 -16 -81 -32 -99 -35 -31 -6 -31 -6 -18 20 9 18 11 31
5 38 -7 8 -2 16 16 24 22 9 25 17 22 41 -3 17 0 30 6 30 6 0 4 5 -4 10 -8 5
-10 10 -4 10 19 0 25 30 9 46 -20 20 -19 35 2 27 11 -4 14 -3 9 5 -4 7 -2 12
3 12 6 0 11 -10 11 -23z m-394 -24 c-7 -7 -26 7 -26 19 0 6 6 6 15 -2 9 -7 13
-15 11 -17z m168 -9 c9 -22 -3 -32 -14 -14 -12 19 -12 30 -1 30 5 0 12 -7 15
-16z m356 12 c0 -2 -7 -7 -16 -10 -8 -3 -12 -2 -9 4 6 10 25 14 25 6z m87 -27
c-6 -23 -12 -23 75 1 87 24 99 25 92 5 -4 -8 -10 -13 -14 -10 -4 3 -10 -1 -13
-9 -4 -10 0 -12 14 -9 14 4 19 0 19 -13 0 -16 -2 -17 -10 -4 -7 11 -10 11 -10
2 0 -9 -11 -11 -40 -7 -38 6 -40 5 -40 -20 0 -17 4 -24 12 -19 6 4 8 3 5 -4
-4 -5 -15 -9 -25 -7 -9 1 -21 -1 -27 -5 -5 -5 -39 -10 -75 -13 -38 -3 -56 -2
-45 3 24 9 27 56 4 71 -10 6 -8 9 11 9 27 0 67 20 41 20 -10 0 -11 3 -2 13 6
8 8 17 4 21 -4 4 1 4 11 0 11 -4 16 -14 13 -25z m-473 -32 c4 4 4 0 0 -10 -9
-25 -38 -22 -31 3 3 11 1 20 -5 20 -5 0 -6 5 -2 11 4 8 11 4 18 -10 7 -12 15
-18 20 -14z m-184 -12 c7 -8 9 -15 5 -15 -4 0 -2 -7 5 -15 11 -13 10 -14 -4
-9 -9 4 -15 12 -13 18 2 6 -3 16 -12 23 -9 7 -11 13 -5 13 6 0 17 -7 24 -15z
m120 -7 c25 -27 25 -34 1 -34 -15 0 -17 3 -9 13 7 9 7 13 0 13 -5 0 -12 7 -16
15 -8 21 0 19 24 -7z m-160 -8 c8 -16 8 -20 -4 -20 -9 0 -14 8 -13 20 1 11 2
20 4 20 1 0 7 -9 13 -20z m115 -30 c3 -5 3 -15 -1 -21 -6 -11 -23 6 -24 24 0
10 18 9 25 -3z m-135 -10 c0 -5 -5 -10 -11 -10 -5 0 -7 5 -4 10 3 6 8 10 11
10 2 0 4 -4 4 -10z m268 -15 c0 -14 -4 -25 -9 -25 -10 0 -12 34 -2 43 10 10
11 9 11 -18z m-278 -21 c0 -8 -6 -11 -15 -8 -8 4 -15 15 -15 26 0 17 3 18 15
8 8 -7 15 -19 15 -26z m123 12 c9 -7 17 -19 16 -27 0 -10 -2 -11 -6 -1 -7 18
-23 15 -23 -5 0 -10 -4 -23 -8 -30 -4 -6 -7 9 -7 33 0 48 2 50 28 30z m79 -8
c-7 -7 -12 -8 -12 -2 0 14 12 26 19 19 2 -3 -1 -11 -7 -17z m-116 -35 c-7 -17
-8 -17 -17 0 -12 21 -2 44 13 29 6 -6 8 -19 4 -29z m-26 -14 c0 -6 -12 -29
-28 -52 -19 -29 -26 -52 -24 -74 5 -46 20 -41 33 12 6 25 15 42 20 39 5 -3 14
7 21 23 9 22 12 24 15 11 7 -29 23 -21 23 11 0 17 5 33 10 36 6 4 10 3 9 -2
-4 -22 2 -25 16 -7 14 18 14 18 13 -9 -2 -15 -7 -26 -14 -23 -6 2 -11 -1 -11
-8 0 -6 -3 -25 -6 -41 l-7 -30 16 25 c14 23 15 23 11 3 -5 -21 -3 -20 43 8 53
33 65 36 56 14 -7 -18 5 -20 23 -2 11 10 13 9 9 -3 -3 -8 -16 -15 -29 -15 -14
0 -25 -7 -27 -17 -2 -9 -28 -31 -58 -48 -30 -17 -57 -37 -60 -45 -4 -8 -10
-13 -14 -10 -10 6 -38 -17 -129 -102 l-66 -61 0 39 c0 21 4 39 9 39 4 0 2 8
-5 17 -12 15 -12 16 4 10 15 -6 16 -4 6 16 -12 21 -11 21 6 7 17 -14 17 -14 7
7 -16 29 -15 33 4 33 11 0 14 5 10 16 -3 9 -6 21 -6 27 0 7 -4 6 -10 -3 -5 -8
-10 -10 -10 -5 0 6 4 16 9 23 6 10 10 10 21 -3 7 -8 17 -15 22 -15 5 0 2 7 -6
16 -18 18 -22 39 -4 28 8 -5 9 0 6 14 -4 15 -2 22 9 22 8 0 12 4 9 8 -9 15 25
54 41 48 11 -5 13 -2 9 10 -3 9 -3 20 0 25 6 11 24 2 24 -12z m158 -18 c-7
-11 -18 -17 -27 -13 -10 4 -11 7 -3 10 7 2 10 8 6 13 -3 5 4 9 15 9 18 0 20
-3 9 -19z m182 9 c-8 -5 -19 -10 -25 -10 -5 0 -3 5 5 10 8 5 20 10 25 10 6 0
3 -5 -5 -10z m420 -4 c0 -2 -11 -6 -25 -8 -13 -3 -22 -1 -19 3 5 9 44 13 44 5z
m348 -16 c39 -24 41 -40 5 -40 -38 0 -91 -34 -103 -65 -10 -26 -10 -26 -30 -7
-44 41 9 129 80 131 8 1 30 -8 48 -19z m-815 3 c-10 -3 -10 -10 -2 -26 l12
-22 -20 20 c-23 22 -21 35 5 34 10 0 12 -3 5 -6z m525 -81 c14 -21 13 -22 -18
-28 -36 -8 -70 -53 -70 -94 -1 -56 -8 -107 -19 -134 -6 -16 -9 -31 -6 -34 2
-3 23 3 46 13 42 19 68 14 77 -15 3 -7 0 -10 -7 -6 -7 4 -11 0 -11 -13 0 -24
-46 -41 -125 -45 -47 -3 -55 -1 -53 13 2 9 11 22 21 29 18 14 14 36 -6 29 -22
-7 -38 20 -28 46 6 14 13 53 17 87 6 51 9 60 23 55 37 -15 44 -15 19 0 -16 8
-28 20 -28 25 0 22 37 79 55 86 53 19 61 20 79 14 11 -4 26 -17 34 -28z m160
-51 c30 -12 32 -16 26 -45 -4 -17 -6 -44 -6 -61 2 -43 -19 -95 -38 -95 -26 0
-40 49 -34 120 7 96 8 101 14 97 3 -2 20 -9 38 -16z m-128 -61 c0 -5 -4 -10
-10 -10 -5 0 -10 5 -10 10 0 6 5 10 10 10 6 0 10 -4 10 -10z m-520 -36 c13
-32 -15 -104 -39 -104 -13 0 -13 -2 -3 -9 17 -10 23 -103 8 -123 -21 -29 -55
-32 -76 -6 -16 18 -20 36 -18 86 l3 63 30 -6 c28 -5 28 -4 8 7 -27 13 -29 34
-7 68 38 56 78 66 94 24z m267 -30 c-3 -3 -12 -4 -19 -1 -8 3 -5 6 6 6 11 1
17 -2 13 -5z m613 -20 c0 -2 -9 -4 -21 -4 -11 0 -18 4 -14 10 5 8 35 3 35 -6z
m-1061 -65 c-1 -32 -4 -59 -8 -59 -3 0 -23 5 -43 11 l-38 10 15 37 c38 90 75
90 74 1z m999 47 c-8 -7 -41 -16 -73 -20 -42 -6 -57 -5 -50 3 9 8 56 20 128
30 5 0 2 -5 -5 -13z m-562 -53 c-11 -11 -17 4 -9 23 7 18 8 18 11 1 2 -10 1
-21 -2 -24z m271 -25 c-3 -8 -6 -5 -6 6 -1 11 2 17 5 13 3 -3 4 -12 1 -19z
m-475 -30 c-7 -7 -12 -8 -12 -2 0 14 12 26 19 19 2 -3 -1 -11 -7 -17z m-242
-54 c-8 -49 -8 -52 -24 -76 -12 -20 -41 -24 -51 -8 -4 6 -11 7 -17 4 -12 -8
-4 80 12 120 8 22 12 23 48 14 l39 -10 -7 -44z m420 26 c0 -5 -7 -10 -15 -10
-8 0 -15 5 -15 10 0 6 7 10 15 10 8 0 15 -4 15 -10z m-70 -14 c0 -3 -4 -8 -10
-11 -5 -3 -10 -1 -10 4 0 6 5 11 10 11 6 0 10 -2 10 -4z m2800 -32 c0 5 9 1
21 -10 14 -12 18 -25 14 -41 -4 -16 -1 -23 10 -23 8 0 16 6 17 13 0 6 2 17 2
22 1 6 5 15 9 22 4 7 -2 18 -14 27 l-22 15 24 -2 c13 -1 46 -23 74 -49 34 -32
52 -43 57 -35 9 13 17 3 53 -68 15 -29 27 -40 43 -39 15 0 22 -5 22 -17 0 -10
4 -20 9 -23 5 -3 12 -21 15 -41 4 -19 12 -37 17 -41 7 -4 9 1 4 15 -3 12 -2
21 4 21 5 0 12 -13 16 -30 4 -16 13 -30 21 -30 8 0 14 -5 14 -11 0 -5 -5 -7
-11 -3 -16 9 -1 -54 19 -86 9 -14 17 -27 17 -30 1 -3 6 -21 12 -40 6 -19 11
-42 11 -50 0 -8 11 -66 24 -128 24 -109 23 -139 -1 -86 -16 35 -26 23 -13 -15
6 -16 8 -40 5 -52 -4 -14 0 -25 12 -31 14 -9 15 -12 4 -20 -8 -6 -10 -11 -4
-14 12 -5 7 -94 -5 -94 -4 0 -10 18 -14 40 -4 26 -10 38 -17 34 -13 -8 -4 -81
13 -101 6 -7 6 -13 1 -13 -15 0 -33 23 -33 42 0 25 -28 78 -40 78 -6 0 -10
-22 -10 -50 0 -40 3 -48 15 -44 10 4 15 0 15 -12 0 -11 3 -30 6 -44 6 -24 6
-25 -9 -5 -16 20 -16 20 -16 -5 0 -14 4 -44 8 -67 6 -32 5 -43 -4 -43 -23 0
-29 22 -43 155 -5 50 -14 100 -20 112 -7 12 -12 33 -12 46 0 14 -7 28 -16 31
-22 8 -30 0 -16 -17 12 -14 11 -34 -2 -55 -12 -20 -15 -82 -3 -82 6 0 8 -2 5
-5 -8 -8 -39 6 -33 15 9 14 -6 40 -24 40 -13 0 -14 2 -2 9 13 8 13 12 1 26
-11 13 -11 18 -1 25 9 5 10 10 2 14 -6 4 -11 2 -11 -3 0 -6 -4 -11 -10 -11 -5
0 -10 7 -10 15 0 8 7 15 16 15 8 0 12 5 9 10 -4 6 -10 8 -15 5 -4 -3 -13 2
-19 9 -10 11 -8 17 6 25 10 6 13 11 6 11 -7 0 -10 7 -6 16 4 11 15 15 34 12
16 -3 29 -1 29 4 0 4 -6 9 -12 9 -7 1 -20 2 -28 3 -9 0 -16 13 -18 32 -3 33
-39 79 -62 79 -8 0 -20 15 -26 34 l-11 35 -5 -35 c-3 -19 -2 -43 2 -54 4 -11
9 -24 10 -30 1 -5 6 -16 12 -22 8 -10 3 -13 -20 -13 -26 0 -31 5 -37 30 -4 16
-17 38 -31 49 -24 19 -54 79 -33 65 8 -4 10 3 7 22 -3 16 -3 23 -1 17 4 -12
23 -19 23 -9 0 16 -14 36 -26 36 -8 0 -14 5 -14 11 0 5 5 7 10 4 6 -3 10 1 10
10 0 9 4 14 8 11 5 -3 7 5 6 17 -1 12 -3 22 -4 22 -1 0 -3 10 -4 22 -5 46 -63
82 -82 51 -10 -16 -5 -90 6 -102 5 -5 6 -16 3 -25 -4 -9 -3 -13 2 -9 9 8 35
-36 35 -58 0 -12 -5 -11 -25 2 -23 15 -25 15 -19 0 3 -9 1 -23 -6 -31 -10 -12
-9 -15 6 -16 13 0 14 -2 5 -6 -9 -4 -10 -8 -3 -12 15 -9 25 -91 11 -91 -5 0
-7 5 -4 10 8 13 -8 13 -22 -1 -8 -8 -13 -2 -19 23 -4 18 -8 40 -9 48 0 9 -4
20 -8 27 -4 6 -4 18 -1 27 3 9 2 16 -4 16 -6 0 -8 8 -5 19 3 10 0 21 -5 25 -5
3 -7 17 -4 31 3 20 9 24 23 20 13 -4 19 -1 19 8 0 8 -9 17 -19 20 -13 3 -24
19 -31 46 -12 47 -48 76 -85 69 -13 -3 -22 -2 -20 2 6 9 -25 23 -33 15 -3 -3
0 -5 6 -5 18 0 15 -79 -3 -86 -8 -4 -15 -11 -15 -16 0 -6 7 -7 16 -4 12 5 15
2 10 -10 -3 -8 -6 -18 -6 -21 0 -8 -27 22 -33 37 -4 12 -6 11 -6 -3 -1 -25
-21 -11 -21 15 0 16 4 19 24 14 31 -8 40 6 17 25 -14 13 -19 13 -30 2 -18 -20
-27 -7 -10 14 12 15 12 16 -3 10 -20 -7 -81 20 -76 35 2 5 7 9 11 9 4 -1 14
-1 22 -1 9 0 12 -6 9 -15 -7 -17 21 -21 31 -5 5 8 11 7 21 -1 12 -10 15 -10
12 2 -2 8 -11 17 -21 21 -24 10 -33 38 -16 49 10 6 11 11 3 17 -6 4 -13 31
-16 60 -4 45 -3 52 13 52 10 0 21 5 25 11 5 9 -1 10 -20 5 -21 -5 -26 -3 -26
12 0 15 6 18 30 14 23 -3 30 -10 30 -26 0 -11 3 -31 6 -43 5 -17 2 -23 -10
-23 -9 0 -16 -5 -16 -10 0 -6 6 -10 13 -9 27 3 33 -2 32 -28 0 -26 2 -28 50
-29 43 -1 50 -4 56 -25 5 -18 7 -14 8 18 1 29 -4 45 -15 51 -11 6 -14 14 -8
23 5 8 10 30 11 49 3 61 5 67 24 63 12 -4 19 3 24 26 7 33 22 41 31 16 6 -14
8 -13 19 2 13 17 14 16 24 -7 l11 -25 -1 25 c-2 43 1 46 21 20 11 -14 20 -21
20 -16z m-155 -4 c3 -5 1 -10 -4 -10 -6 0 -11 5 -11 10 0 6 2 10 4 10 3 0 8
-4 11 -10z m305 0 c0 -5 -2 -10 -4 -10 -3 0 -8 5 -11 10 -3 6 -1 10 4 10 6 0
11 -4 11 -10z m-3133 -36 c-3 -3 -12 -4 -19 -1 -8 3 -5 6 6 6 11 1 17 -2 13
-5z m-405 -65 c-6 -50 -12 -67 -28 -73 -15 -6 -16 0 -10 40 3 25 9 50 12 55
11 18 29 3 26 -22z m1520 7 c19 -8 40 -21 47 -29 10 -13 7 -15 -21 -14 -28 2
-33 -1 -31 -20 3 -25 -23 -38 -43 -22 -11 9 -11 15 -3 25 6 8 7 14 2 14 -18 0
-56 -34 -67 -62 l-12 -29 -27 21 c-25 20 -26 23 -13 48 19 36 48 59 88 71 45
13 41 13 80 -3z m868 4 c0 -5 -2 -10 -4 -10 -3 0 -8 5 -11 10 -3 6 -1 10 4 10
6 0 11 -4 11 -10z m-1770 -10 c0 -5 -2 -10 -4 -10 -3 0 -8 5 -11 10 -3 6 -1
10 4 10 6 0 11 -4 11 -10z m1204 -12 c-15 -7 -28 -7 -40 1 -16 9 -12 10 21 10
35 0 37 -2 19 -11z m106 2 c0 -5 -2 -10 -4 -10 -3 0 -8 5 -11 10 -3 6 -1 10 4
10 6 0 11 -4 11 -10z m-1426 -16 c3 -8 2 -12 -4 -9 -6 3 -10 10 -10 16 0 14 7
11 14 -7z m1376 -9 c0 -18 4 -23 15 -19 32 13 12 -27 -24 -45 -19 -11 -26 -10
-36 1 -23 23 -27 55 -9 62 11 4 15 2 12 -6 -3 -7 3 -21 12 -31 17 -18 18 -18
17 0 -1 10 -6 21 -12 25 -6 5 -5 8 4 8 7 0 11 6 7 15 -3 8 -1 15 4 15 6 0 10
-11 10 -25z m-1410 7 c0 -5 -7 -9 -15 -9 -8 0 -12 4 -9 9 3 4 9 8 15 8 5 0 9
-4 9 -8z m696 -6 c10 -8 17 -16 14 -18 -3 -2 -23 -12 -45 -23 -47 -23 -81 -79
-62 -100 7 -8 14 -9 18 -3 3 5 29 12 57 15 l52 5 0 -95 c0 -54 4 -99 10 -102
22 -14 -20 -38 -56 -32 -38 6 -57 22 -62 52 -2 11 -8 25 -12 30 -5 6 -7 27 -6
48 2 20 -1 37 -5 37 -5 0 -9 -16 -9 -35 0 -30 -18 -135 -25 -143 -1 -1 -9 0
-17 3 -10 4 -13 15 -10 31 3 18 1 23 -11 19 -16 -7 -32 21 -17 30 7 4 7 13 0
24 -5 10 -8 20 -5 22 3 4 12 70 14 108 1 8 8 11 19 7 11 -4 8 0 -7 12 -21 17
-22 21 -10 45 34 64 127 98 175 63z m1734 -5 c0 -6 -4 -12 -9 -16 -6 -3 -6
-17 1 -36 6 -16 8 -33 4 -36 -3 -3 -11 8 -17 25 -14 41 -32 42 -25 2 3 -21 0
-30 -9 -30 -9 0 -13 9 -11 28 2 15 4 32 5 39 1 7 8 10 18 6 12 -5 15 -2 10 10
-5 12 -1 17 13 17 11 0 20 -4 20 -9z m-2981 -75 c-9 -8 -10 -5 -5 14 3 14 6
32 7 40 1 8 4 2 6 -14 3 -16 -1 -34 -8 -40z m912 44 c25 -14 24 -24 -5 -40
-14 -7 -32 -30 -40 -51 -17 -42 -35 -48 -80 -28 -22 10 -23 14 -14 43 24 70
86 104 139 76z m732 -10 c3 -11 1 -20 -4 -20 -5 0 -9 9 -9 20 0 11 2 20 4 20
2 0 6 -9 9 -20z m1637 -15 c0 -8 -4 -15 -10 -15 -5 0 -10 7 -10 15 0 8 5 15
10 15 6 0 10 -7 10 -15z m-35 -5 c3 -5 1 -10 -4 -10 -6 0 -11 5 -11 10 0 6 2
10 4 10 3 0 8 -4 11 -10z m-1675 -4 c0 -3 -4 -8 -10 -11 -5 -3 -10 -1 -10 4 0
6 5 11 10 11 6 0 10 -2 10 -4z m-928 -23 c23 -21 23 -29 -2 -60 -11 -14 -20
-34 -20 -44 0 -11 -6 -19 -12 -20 -10 0 -10 -2 0 -6 6 -2 12 -11 12 -19 0 -8
7 -14 15 -14 16 0 19 -37 8 -104 l-6 -38 -15 33 -15 34 -11 -42 c-13 -51 -12
-49 -63 -56 -40 -5 -41 -4 -46 27 -6 40 10 167 23 180 6 6 6 14 -1 22 -7 8 -7
14 1 19 5 3 10 15 10 25 0 27 55 80 81 80 13 0 31 -7 41 -17z m635 11 c-3 -3
-12 -4 -19 -1 -8 3 -5 6 6 6 11 1 17 -2 13 -5z m178 -18 c17 -12 19 -24 16
-87 -2 -53 -8 -80 -22 -97 l-18 -24 -7 29 c-4 15 -7 53 -7 83 2 124 2 123 38
96z m-185 0 c0 -2 -13 -6 -30 -8 -16 -3 -30 -1 -30 4 0 4 14 8 30 8 17 0 30
-2 30 -4z m844 -5 c14 -6 26 -20 28 -33 2 -13 9 -22 16 -20 7 1 12 -8 12 -22
0 -19 -5 -23 -25 -21 -14 2 -25 -1 -25 -6 0 -5 4 -9 9 -9 18 0 10 -80 -9 -90
-24 -13 -31 -2 -17 22 9 16 9 22 0 25 -15 6 -7 50 13 74 20 23 17 30 -9 20
-21 -8 -23 -7 -22 30 0 21 1 39 2 39 1 0 13 -4 27 -9z m-1693 -45 c7 -14 9
-40 5 -60 -6 -30 -11 -36 -32 -36 -24 0 -84 25 -84 36 0 3 7 18 15 34 27 53
78 66 96 26z m1779 2 c0 -18 -2 -20 -9 -8 -6 8 -7 18 -5 22 9 14 14 9 14 -14z
m640 4 c0 -4 14 -13 30 -20 18 -8 30 -21 30 -32 0 -31 -18 -32 -32 -3 -8 16
-27 31 -48 38 -23 8 -30 14 -20 18 22 8 40 8 40 -1z m140 -8 c0 -16 7 -16 55
1 l20 7 -20 -16 c-11 -8 -25 -20 -31 -25 -7 -6 -17 1 -28 20 -10 16 -12 29 -7
29 6 0 11 -7 11 -16z m-2740 -40 c15 -39 12 -58 -12 -84 -18 -19 -19 -22 -5
-17 16 6 17 1 11 -56 -9 -77 -17 -107 -27 -104 -5 1 -13 -6 -18 -16 -18 -31
-25 -10 -22 60 2 37 4 82 5 98 0 17 2 24 5 17 3 -6 9 -10 14 -6 16 10 10 24
-11 24 -31 0 -22 46 18 93 21 23 31 21 42 -9z m698 -68 c-1 -52 -6 -97 -10
-101 -8 -8 -50 4 -44 13 2 4 -1 18 -7 32 -10 25 -18 94 -9 86 2 -3 10 1 17 7
10 9 10 15 1 26 -9 12 -8 14 6 9 10 -4 19 -1 22 8 3 8 10 14 17 14 7 0 10 -29
7 -94z m-99 78 c24 -5 29 -10 21 -19 -6 -7 -15 -50 -20 -95 -10 -92 -16 -103
-34 -77 -7 9 -18 17 -23 17 -5 0 -18 9 -28 20 -12 13 -14 20 -5 20 7 0 10 7 7
15 -4 8 -2 17 4 21 6 3 10 22 9 43 -3 67 -1 69 69 55z m-189 -43 c0 -6 -4 -12
-8 -15 -5 -3 -9 1 -9 9 0 8 4 15 9 15 4 0 8 -4 8 -9z m1517 -23 c-3 -7 -5 -2
-5 12 0 14 2 19 5 13 2 -7 2 -19 0 -25z m283 -2 c0 -13 3 -38 6 -55 6 -27 4
-31 -14 -31 -17 0 -21 8 -24 51 -3 54 -2 59 19 59 7 0 13 -11 13 -24z m464 8
c34 6 35 5 24 -14 -9 -15 -10 -23 -2 -28 6 -4 10 -20 10 -37 -1 -22 3 -30 16
-29 10 1 14 -4 11 -12 -2 -7 -12 -10 -21 -7 -11 5 -14 2 -9 -10 7 -20 1 -21
-42 -6 -20 7 -33 20 -37 35 -3 13 -10 21 -15 18 -5 -3 -9 2 -9 11 0 9 5 13 10
10 12 -8 12 -8 1 33 -6 21 -6 32 0 32 6 0 7 6 3 13 -6 9 -3 8 8 -1 11 -9 30
-11 52 -8z m-714 -23 c0 -17 -27 -37 -37 -27 -6 6 20 46 29 46 5 0 8 -9 8 -19z
m-1793 1 c10 -6 11 -26 3 -86 -13 -102 -32 -122 -93 -93 -33 15 -38 57 -6 57
11 0 17 5 14 10 -4 6 -10 8 -15 5 -12 -7 -23 12 -14 26 4 8 9 7 15 -2 7 -11
11 -11 21 -1 10 10 10 17 0 32 -15 24 -15 33 -2 25 6 -3 10 -1 10 5 0 6 -10
15 -22 20 -19 7 -13 9 27 9 28 0 56 -3 62 -7z m-404 -39 c-4 -11 -3 -14 5 -9
8 5 9 1 3 -15 -10 -28 -31 -37 -31 -14 0 17 17 55 25 55 2 0 1 -7 -2 -17z
m1727 13 c0 -3 -4 -8 -10 -11 -5 -3 -10 -1 -10 4 0 6 5 11 10 11 6 0 10 -2 10
-4z m1279 -60 c6 -42 5 -56 -5 -56 -8 0 -11 13 -8 40 3 29 0 39 -8 34 -8 -5
-9 -2 -5 10 4 10 7 23 7 28 0 30 12 -7 19 -56z m-1309 50 c0 -11 -19 -15 -25
-6 -3 5 1 10 9 10 9 0 16 -2 16 -4z m1015 -21 c6 0 16 4 23 8 7 5 12 3 12 -6
0 -20 -47 -28 -54 -10 -8 21 -6 41 2 23 4 -9 12 -15 17 -15z m463 -8 c2 -15 8
-27 14 -27 5 0 8 6 5 13 -3 8 -1 20 3 27 9 15 25 -92 17 -114 -3 -7 0 -19 6
-26 9 -10 9 -11 -3 -8 -9 3 -14 15 -12 32 1 14 -1 26 -6 26 -14 0 -21 -35 -11
-53 6 -9 5 -18 0 -21 -11 -7 -24 21 -25 56 -1 27 17 44 35 32 5 -3 9 0 9 6 0
6 -11 15 -23 21 -18 8 -23 17 -20 37 4 21 2 24 -6 12 -9 -13 -11 -12 -11 3 0
29 25 14 28 -16z m-1853 -7 c3 -5 1 -10 -4 -10 -6 0 -11 5 -11 10 0 6 2 10 4
10 3 0 8 -4 11 -10z m942 -15 c0 -8 -4 -12 -8 -9 -4 2 -9 -1 -11 -8 -3 -7 -7
-2 -10 10 -5 16 -2 22 11 22 10 0 18 -7 18 -15z m65 0 c0 -5 -5 -11 -11 -13
-6 -2 -11 4 -11 13 0 9 5 15 11 13 6 -2 11 -8 11 -13z m58 -16 c0 -6 -4 -7
-10 -4 -5 3 -10 11 -10 16 0 6 5 7 10 4 6 -3 10 -11 10 -16z m-2377 -21 c-3
-18 -11 -28 -22 -27 -10 0 -11 2 -3 6 6 2 12 13 12 22 0 16 10 34 16 29 1 -2
0 -15 -3 -30z m2537 20 c0 -5 -5 -8 -11 -8 -5 0 -8 -4 -4 -10 3 -5 -7 -5 -25
1 -16 6 -28 14 -26 17 6 10 66 9 66 0z m40 2 c0 -5 -2 -10 -4 -10 -3 0 -8 5
-11 10 -3 6 -1 10 4 10 6 0 11 -4 11 -10z m163 -5 c-4 -15 -36 -12 -41 3 -3 9
3 13 19 10 13 -1 23 -7 22 -13z m-2666 -15 c-1 -22 -17 -28 -17 -7 0 12 9 27
16 27 2 0 2 -9 1 -20z m2253 -5 c0 -8 -4 -15 -9 -15 -5 0 -14 7 -21 15 -10 13
-9 15 9 15 12 0 21 -6 21 -15z m-2193 -27 c-3 -8 -6 -5 -6 6 -1 11 2 17 5 13
3 -3 4 -12 1 -19z m2192 8 c30 1 32 -1 15 -12 -11 -7 -24 -18 -31 -23 -7 -7
-13 -6 -16 4 -3 7 -16 15 -28 17 -12 2 -24 9 -27 16 -3 10 3 11 25 5 15 -4 43
-8 62 -7z m110 -18 c0 -18 -3 -26 -6 -18 -3 8 -11 18 -17 23 -8 5 -6 10 4 17
21 13 20 14 19 -22z m511 17 c-6 -8 -8 -20 -4 -26 4 -8 3 -9 -4 -5 -16 10 -15
33 1 39 19 8 20 8 7 -8z m-2304 -31 c-11 -7 -22 -11 -25 -8 -3 3 3 12 13 20
11 7 22 11 25 8 3 -3 -3 -12 -13 -20z m-685 -13 c-14 -25 4 -38 19 -14 8 14 9
12 4 -12 -14 -64 -57 -80 -47 -17 6 41 22 77 30 69 2 -3 0 -14 -6 -26z m2414
9 c-3 -5 -16 -10 -28 -9 -21 0 -21 1 -2 9 28 12 37 12 30 0z m43 -15 c-4 -19
-1 -25 10 -23 8 2 17 -3 19 -9 3 -10 -2 -11 -18 -4 -15 5 -23 16 -22 30 1 28
2 31 9 31 4 0 4 -11 2 -25z m592 15 c0 -5 -2 -10 -4 -10 -3 0 -8 5 -11 10 -3
6 -1 10 4 10 6 0 11 -4 11 -10z m-2460 -4 c0 -3 -4 -8 -10 -11 -5 -3 -10 -1
-10 4 0 6 5 11 10 11 6 0 10 -2 10 -4z m2397 -28 c-3 -8 -6 -5 -6 6 -1 11 2
17 5 13 3 -3 4 -12 1 -19z m-2554 -15 c-4 -11 -3 -14 5 -9 8 5 10 2 6 -8 -4
-12 -9 -12 -18 -3 -14 12 -9 50 5 42 4 -3 5 -13 2 -22z m211 8 c-5 -5 -38 -11
-74 -14 -36 -3 -56 -4 -45 -1 11 3 27 8 35 11 8 3 27 5 42 4 14 -1 29 3 33 9
4 6 10 9 13 5 3 -3 1 -9 -4 -14z m2613 -13 c-3 -8 -6 -5 -6 6 -1 11 2 17 5 13
3 -3 4 -12 1 -19z m-197 -18 c0 -5 -5 -10 -11 -10 -5 0 -7 5 -4 10 3 6 8 10
11 10 2 0 4 -4 4 -10z m-659 -10 c12 0 19 -7 19 -19 0 -11 6 -22 13 -24 6 -3
1 -6 -13 -6 -14 -1 -35 -4 -48 -7 l-23 -7 27 -13 c14 -8 32 -14 40 -14 7 0 18
-10 25 -21 8 -15 8 -19 0 -15 -6 4 -11 3 -11 -2 0 -6 7 -12 15 -16 8 -3 15
-10 15 -16 0 -7 -16 -9 -47 -6 l-48 6 55 -19 c30 -11 59 -27 66 -35 6 -9 15
-12 19 -8 5 4 5 -1 2 -11 -4 -10 -3 -16 2 -12 18 10 23 -16 10 -47 -11 -26
-10 -32 3 -42 21 -15 22 -28 4 -38 -20 -11 -21 -38 -1 -38 11 0 15 -11 15 -41
0 -24 -4 -38 -10 -34 -5 3 -10 20 -10 36 0 17 -6 32 -14 35 -8 3 -12 12 -9 20
3 8 1 14 -5 14 -5 0 -13 -32 -16 -71 -9 -86 -13 -99 -32 -92 -8 3 -21 0 -29
-7 -21 -17 -19 -50 2 -50 13 0 14 -3 6 -11 -13 -13 -47 -4 -39 10 3 4 1 23 -4
42 -11 39 1 52 37 38 30 -11 29 -6 -11 82 -18 41 -36 94 -39 119 -4 30 -14 52
-30 66 -40 34 -47 55 -30 81 15 22 14 25 -6 47 -20 21 -22 30 -16 81 l8 57 45
-6 c24 -3 53 -6 63 -6z m874 0 c3 -5 -1 -10 -10 -10 -9 0 -13 5 -10 10 3 6 8
10 10 10 2 0 7 -4 10 -10z m-3191 -29 c3 -5 -6 -8 -20 -8 -19 0 -22 2 -13 8
18 11 26 11 33 0z m86 -1 c0 -5 -5 -10 -11 -10 -5 0 -7 5 -4 10 3 6 8 10 11
10 2 0 4 -4 4 -10z m2320 0 c0 -5 -5 -10 -11 -10 -5 0 -7 5 -4 10 3 6 8 10 11
10 2 0 4 -4 4 -10z m520 0 c0 -5 -4 -10 -10 -10 -5 0 -10 5 -10 10 0 6 5 10
10 10 6 0 10 -4 10 -10z m-3024 -35 c-3 -9 -10 -13 -16 -10 -6 4 -5 11 3 20
15 16 22 11 13 -10z m81 9 c-3 -3 -12 -4 -19 -1 -8 3 -5 6 6 6 11 1 17 -2 13
-5z m3363 -42 c0 -7 -4 -10 -10 -7 -5 3 -10 16 -10 28 0 18 2 19 10 7 5 -8 10
-21 10 -28z m31 -5 c-13 -13 -15 1 -4 30 7 17 8 17 11 -1 2 -10 -1 -23 -7 -29z
m162 24 c2 -10 1 -25 -4 -32 -5 -8 -9 -12 -10 -9 -6 39 -6 60 1 60 4 0 10 -9
13 -19z m-60 -58 c-7 -2 -19 -2 -25 0 -7 3 -2 5 12 5 14 0 19 -2 13 -5z m77 3
c0 -9 -30 -14 -35 -6 -4 6 3 10 14 10 12 0 21 -2 21 -4z m-1580 -21 c35 -18
70 -61 70 -86 0 -18 -1 -18 -20 1 -26 26 -63 34 -90 20 -17 -9 -20 -17 -15
-41 5 -23 3 -29 -10 -29 -9 0 -14 -4 -11 -9 4 -5 -18 -8 -49 -8 -32 1 -53 6
-51 12 2 6 -1 18 -6 27 -22 44 55 127 120 128 18 0 46 -7 62 -15z m-401 -12
c8 -14 4 -23 -17 -40 -33 -26 -23 -41 12 -18 14 9 30 14 36 10 14 -9 13 -55
-2 -55 -9 0 -9 -3 0 -12 18 -18 15 -38 -5 -38 -12 0 -14 -3 -6 -8 9 -6 19 -81
23 -179 0 -8 16 -13 43 -13 31 0 38 -3 27 -10 -13 -8 -12 -10 3 -10 19 0 24
-19 5 -21 -76 -7 -78 -7 -76 10 2 11 -4 15 -17 14 -34 -3 -49 42 -17 50 10 3
5 5 -12 6 -22 1 -27 -2 -22 -15 5 -12 2 -15 -10 -10 -8 3 -20 6 -26 6 -5 0 -8
10 -7 23 2 12 1 27 -3 32 -3 6 -4 31 -1 56 5 43 8 47 42 56 32 9 26 11 -51 12
-51 0 -88 5 -88 11 0 6 6 10 13 10 8 1 7 5 -4 13 -30 23 13 105 66 127 36 15
83 11 94 -7z m-400 -18 c23 -30 37 -85 25 -94 -5 -3 -9 -15 -9 -26 0 -14 -9
-22 -30 -26 l-30 -7 33 -1 c30 -1 32 -3 32 -36 0 -21 -5 -36 -12 -37 -7 0 -19
-2 -27 -2 -8 -1 -16 -7 -19 -15 -3 -9 0 -11 8 -6 9 5 11 4 6 -3 -4 -7 -16 -12
-28 -12 -17 0 -18 -2 -8 -15 11 -13 10 -14 -4 -9 -9 3 -16 2 -16 -4 0 -5 -11
-13 -24 -16 -18 -4 -23 -11 -19 -26 4 -14 0 -20 -11 -20 -9 0 -15 -5 -13 -12
1 -7 -13 -13 -35 -15 -37 -3 -50 8 -27 23 8 5 9 32 5 88 -7 90 1 109 54 119
16 3 10 5 -17 6 -24 0 -43 6 -43 12 0 6 16 9 40 8 21 -2 42 0 46 4 6 6 -45 12
-69 8 -4 -1 -10 5 -13 13 -6 16 24 81 33 72 4 -3 12 -1 19 5 9 7 19 7 36 -2
13 -6 19 -8 15 -3 -7 7 57 54 75 54 4 0 16 -11 27 -25z m-342 -24 c29 -43 29
-56 -1 -56 -19 0 -22 3 -15 16 5 11 4 20 -4 26 -28 21 -57 -1 -57 -44 0 -13
-3 -22 -7 -21 -5 1 -18 -3 -30 -10 -28 -16 -53 -5 -53 23 0 24 39 75 58 75 7
0 12 4 12 9 0 10 24 17 55 17 10 -1 30 -16 42 -35z m1879 23 c58 -17 76 -37
80 -89 2 -16 5 -50 8 -75 3 -25 9 -77 12 -117 7 -70 6 -72 -14 -66 -12 3 -24
14 -27 24 -5 15 -16 19 -51 19 -41 0 -44 -2 -44 -26 0 -14 -4 -23 -9 -19 -5 3
-12 1 -15 -4 -4 -5 4 -12 16 -14 20 -4 19 -4 -4 -6 -16 0 -28 4 -28 9 0 6 -7
10 -15 10 -8 0 -14 -5 -12 -11 1 -6 -4 -14 -11 -16 -7 -3 -12 1 -11 8 1 8 -1
39 -4 69 -4 30 -8 98 -10 150 -3 86 -2 99 20 133 26 42 39 44 119 21z m254 2
c0 -3 -4 -8 -10 -11 -5 -3 -10 -1 -10 4 0 6 5 11 10 11 6 0 10 -2 10 -4z
m-2432 -46 c15 -24 -4 -110 -25 -110 -7 0 -13 -4 -13 -10 0 -5 6 -10 14 -10 7
0 16 -9 19 -20 3 -11 1 -20 -5 -20 -6 0 -8 -13 -6 -29 2 -17 2 -28 -2 -26 -3
2 -12 0 -20 -6 -13 -7 -12 -9 3 -9 21 0 22 -19 1 -48 -14 -21 -14 -23 7 -30
20 -8 20 -9 5 -15 -10 -4 -22 -5 -27 -1 -5 3 -9 0 -9 -5 0 -6 -7 -11 -15 -11
-8 0 -15 -7 -15 -16 0 -18 -24 -14 -26 4 -1 7 -2 17 -3 22 -2 15 -17 12 -35
-5 -21 -22 -27 -4 -17 51 5 27 7 52 4 57 -2 4 0 14 7 22 6 7 12 28 12 45 1 17
7 34 15 38 17 10 7 42 -13 42 -11 0 -11 6 0 38 11 32 20 39 62 54 63 22 67 22
82 -2z m2419 -2 c-3 -8 -6 -5 -6 6 -1 11 2 17 5 13 3 -3 4 -12 1 -19z m433 7
c0 -8 -4 -15 -10 -15 -5 0 -10 7 -10 15 0 8 5 15 10 15 6 0 10 -7 10 -15z
m-1423 -26 c-6 -24 10 -36 53 -42 33 -4 33 -4 -7 -5 -32 -2 -43 -6 -43 -18 0
-10 7 -14 23 -12 20 3 22 -1 24 -49 l3 -53 -90 0 c-81 0 -89 2 -83 18 3 9 11
22 17 27 6 6 11 19 11 30 0 11 8 21 18 23 13 3 17 -4 18 -25 l2 -28 4 29 c4
27 24 55 41 57 12 1 16 9 4 9 -7 0 -12 15 -12 36 0 23 4 33 11 28 6 -3 9 -15
6 -25z m-1667 11 c0 -5 -4 -10 -10 -10 -5 0 -10 5 -10 10 0 6 5 10 10 10 6 0
10 -4 10 -10z m2927 -22 c-3 -8 -6 -5 -6 6 -1 11 2 17 5 13 3 -3 4 -12 1 -19z
m713 12 c0 -5 -4 -10 -10 -10 -5 0 -10 5 -10 10 0 6 5 10 10 10 6 0 10 -4 10
-10z m-3820 -29 c0 -16 -4 -41 -10 -55 -8 -22 -16 -26 -47 -26 -28 0 -34 3
-23 10 10 6 11 10 3 10 -7 0 -13 10 -13 23 0 39 26 61 78 66 7 1 12 -11 12
-28z m136 7 c-3 -13 -3 -17 0 -10 9 19 46 15 42 -5 -5 -28 -88 -40 -88 -12 0
10 37 49 46 49 3 0 3 -10 0 -22z m464 -58 c0 -13 -20 -13 -40 0 -12 8 -9 10
13 10 15 0 27 -4 27 -10z m1330 -36 c0 -19 -4 -34 -10 -34 -5 0 -10 18 -10 41
0 24 4 38 10 34 6 -3 10 -22 10 -41z m-569 24 c1 -13 -2 -42 -4 -44 -1 -1 -18
-5 -37 -8 -27 -6 -32 -5 -20 4 11 9 12 13 3 17 -21 8 -15 31 10 36 40 8 47 7
48 -5z m1775 -1 c8 3 14 1 14 -5 0 -5 -7 -12 -15 -16 -8 -3 -15 -4 -15 -2 0 3
-2 10 -3 18 -2 7 -2 10 0 6 2 -4 11 -4 19 -1z m-3003 -4 c-7 -2 -21 -2 -30 0
-10 3 -4 5 12 5 17 0 24 -2 18 -5z m447 -15 c0 -9 3 -9 9 1 15 24 36 -8 36
-54 0 -31 -4 -39 -15 -36 -8 2 -27 3 -42 2 -27 -1 -28 0 -23 40 3 23 8 46 11
50 8 13 24 11 24 -3z m-595 -46 c-7 -37 -13 -75 -14 -99 -1 -7 -9 -13 -19 -13
-10 0 -27 -7 -38 -15 -19 -14 -19 -14 1 -15 19 -1 19 -1 2 -11 -10 -6 -21 -8
-24 -5 -3 3 -13 -2 -22 -11 -15 -15 -16 -15 -19 1 -2 10 3 25 11 34 8 9 20 50
27 90 8 51 16 72 24 69 7 -3 18 -2 24 2 6 4 21 7 33 8 20 2 21 -1 14 -35z
m135 24 c0 -2 -7 -9 -15 -16 -12 -10 -15 -10 -15 4 0 9 7 16 15 16 8 0 15 -2
15 -4z m600 0 c0 -3 -4 -8 -10 -11 -5 -3 -10 -1 -10 4 0 6 5 11 10 11 6 0 10
-2 10 -4z m2443 -11 c7 -18 -6 -27 -27 -19 -19 7 -21 20 -3 27 20 9 25 8 30
-8z m-2983 -25 c0 -26 -3 -30 -27 -29 -25 0 -26 1 -8 9 11 5 16 9 12 9 -8 1
10 41 18 41 3 0 5 -13 5 -30z m1100 -5 c0 -18 -4 -23 -16 -18 -11 4 -12 8 -4
13 7 4 9 13 6 19 -4 6 -2 11 3 11 6 0 11 -11 11 -25z m2487 -43 c2 -49 1 -53
-9 -32 -14 32 -16 99 -3 94 6 -3 11 -30 12 -62z m-2057 48 c0 -5 -7 -10 -16
-10 -8 0 -12 5 -9 10 3 6 10 10 16 10 5 0 9 -4 9 -10z m-1596 -15 c-4 -8 -8
-15 -10 -15 -2 0 -4 7 -4 15 0 8 4 15 10 15 5 0 7 -7 4 -15z m1203 -1 c-3 -3
-12 -4 -19 -1 -8 3 -5 6 6 6 11 1 17 -2 13 -5z m1850 -10 c-3 -3 -12 -4 -19
-1 -8 3 -5 6 6 6 11 1 17 -2 13 -5z m-2554 -23 c11 -2 8 -59 -3 -66 -8 -5 -7
-11 1 -21 17 -21 -28 -19 -49 2 -15 15 -16 15 -23 -2 -5 -13 -8 -6 -8 23 -1
69 7 75 82 64z m432 -1 c-3 -5 -12 -10 -18 -10 -7 0 -6 4 3 10 19 12 23 12 15
0z m237 -66 c-2 -18 -8 -31 -13 -28 -11 6 -12 55 -2 80 6 17 7 17 13 0 3 -10
4 -33 2 -52z m-1182 16 c0 -11 -4 -20 -10 -20 -5 0 -10 9 -10 20 0 11 5 20 10
20 6 0 10 -9 10 -20z m3087 -18 c-1 -16 -5 -17 -29 -8 -29 11 -37 31 -15 39
19 7 46 -11 44 -31z m-324 21 c-7 -2 -19 -2 -25 0 -7 3 -2 5 12 5 14 0 19 -2
13 -5z m-1633 -25 c0 -16 -3 -19 -11 -11 -6 6 -8 16 -5 22 11 17 16 13 16 -11z
m810 7 c0 -8 -4 -15 -10 -15 -5 0 -7 7 -4 15 4 8 8 15 10 15 2 0 4 -7 4 -15z
m90 -5 c0 -11 -4 -20 -10 -20 -5 0 -10 2 -10 4 0 2 -3 11 -6 20 -4 11 -1 16
10 16 9 0 16 -8 16 -20z m-2173 4 c-3 -3 -12 -4 -19 -1 -8 3 -5 6 6 6 11 1 17
-2 13 -5z m1163 -2 c0 -2 -7 -10 -15 -18 -8 -9 -15 -13 -15 -11 0 3 -2 12 -5
19 -4 9 2 14 15 14 11 0 20 -2 20 -4z m1197 -8 c-3 -3 -12 -4 -19 -1 -8 3 -5
6 6 6 11 1 17 -2 13 -5z m-727 -34 c0 -5 -5 -10 -11 -10 -5 0 -7 5 -4 10 3 6
8 10 11 10 2 0 4 -4 4 -10z m423 -10 c3 -13 -1 -24 -14 -30 -16 -9 -19 -7 -19
10 0 12 -4 18 -10 15 -5 -3 -10 -2 -10 4 0 8 14 15 41 20 4 0 9 -8 12 -19z
m-1908 0 c3 -5 -3 -10 -15 -10 -12 0 -18 5 -15 10 3 6 10 10 15 10 5 0 12 -4
15 -10z m753 -18 c2 -12 7 -22 12 -22 4 0 6 9 3 20 -4 14 0 20 12 20 11 0 15
-5 11 -15 -7 -18 10 -20 17 -2 4 9 8 8 16 -3 17 -24 13 -29 -26 -29 -21 0 -50
-2 -66 -4 -15 -2 -30 0 -33 4 -3 5 4 9 15 9 27 0 36 17 19 37 -11 14 -11 16 2
11 8 -2 16 -14 18 -26z m1722 19 c0 -5 -21 -6 -47 -4 -71 7 -75 11 -10 12 31
1 57 -3 57 -8z m37 3 c-3 -3 -12 -4 -19 -1 -8 3 -5 6 6 6 11 1 17 -2 13 -5z
m863 -14 c0 -5 -4 -10 -10 -10 -5 0 -10 5 -10 10 0 6 5 10 10 10 6 0 10 -4 10
-10z m40 0 c0 -5 -2 -10 -4 -10 -3 0 -8 5 -11 10 -3 6 -1 10 4 10 6 0 11 -4
11 -10z m-2920 -8 c0 -4 -5 -13 -12 -20 -8 -8 -8 -12 -1 -12 6 0 16 7 23 15 7
9 20 13 28 10 8 -3 21 0 28 6 7 6 19 7 25 3 9 -5 7 -11 -6 -21 -14 -9 -15 -13
-4 -13 12 0 12 -2 0 -9 -16 -10 -53 -2 -45 10 3 5 0 9 -5 9 -6 0 -11 -4 -11
-10 0 -5 -16 -9 -35 -8 -23 1 -31 4 -23 9 13 9 -4 13 -42 10 -8 0 -1 6 15 14
33 16 65 19 65 7z m740 -2 c0 -5 -21 -10 -47 -10 -35 0 -44 3 -33 10 20 13 80
13 80 0z m100 0 c0 -6 -11 -10 -25 -10 -14 0 -25 4 -25 8 0 4 11 9 25 10 14 1
25 -3 25 -8z m620 -5 c7 -9 8 -15 2 -15 -5 0 -12 7 -16 15 -3 8 -4 15 -2 15 2
0 9 -7 16 -15z m1020 -11 c0 5 7 3 15 -4 9 -7 14 -19 11 -26 -3 -9 7 -14 34
-16 30 -2 37 -6 31 -17 -7 -10 -13 -11 -31 -1 -18 10 -24 9 -31 -1 -6 -10 -11
-6 -18 14 -14 36 -27 34 -36 -5 l-7 -33 -14 39 c-13 36 -12 41 3 57 16 16 19
16 31 1 6 -9 12 -12 12 -8z m-1650 -8 c0 -2 -13 -9 -30 -15 -35 -12 -41 -5 -7
9 25 10 37 12 37 6z m865 -104 c1 -18 -4 -37 -11 -43 -11 -9 -12 -1 -7 39 3
32 1 52 -6 56 -6 4 -11 17 -11 29 1 34 32 -40 35 -81z m925 89 c0 -14 -18 -23
-30 -16 -6 4 -8 11 -5 16 8 12 35 12 35 0z m-1870 -16 c0 -32 -11 -44 -33 -36
-12 5 -25 9 -30 9 -48 5 -75 16 -70 28 7 19 133 18 133 -1z m-310 -43 c5 -21
10 -51 10 -68 0 -31 -2 -32 -47 -36 -27 -3 -57 -1 -68 2 -13 5 -24 2 -31 -8
-9 -12 -10 -8 -6 16 4 33 17 42 25 20 3 -7 4 -3 4 10 -1 13 -6 21 -14 18 -7
-3 -10 1 -6 10 3 7 9 14 14 14 5 0 9 6 9 13 0 28 56 60 87 49 7 -2 17 -20 23
-40z m1962 33 c0 -5 -5 -11 -11 -13 -6 -2 -11 4 -11 13 0 9 5 15 11 13 6 -2
11 -8 11 -13z m-2389 -2 c-7 -2 -19 -2 -25 0 -7 3 -2 5 12 5 14 0 19 -2 13 -5z
m772 -12 c3 -5 1 -12 -5 -16 -5 -3 -10 1 -10 9 0 18 6 21 15 7z m141 -10 c20
-16 21 -20 8 -25 -25 -10 -32 -7 -39 14 -4 11 -9 19 -13 16 -4 -2 -16 0 -27 5
-16 6 -14 8 13 8 19 1 45 -7 58 -18z m-1476 -25 c0 -19 -4 -22 -25 -18 -28 5
-27 4 -19 26 10 26 44 20 44 -8z m1430 0 c-7 -7 -14 -6 -21 1 -9 9 -7 12 9 10
14 -1 18 -5 12 -11z m-1360 0 c0 -3 -4 -8 -10 -11 -5 -3 -10 -1 -10 4 0 6 5
11 10 11 6 0 10 -2 10 -4z m310 -20 c0 -3 -4 -8 -10 -11 -5 -3 -10 -1 -10 4 0
6 5 11 10 11 6 0 10 -2 10 -4z m1794 -17 c-6 -11 -24 -2 -24 11 0 5 7 7 15 4
8 -4 12 -10 9 -15z m882 -21 c17 -15 22 -32 23 -75 0 -31 3 -58 5 -61 8 -8 46
9 41 19 -4 5 3 9 14 9 12 0 21 -6 21 -13 0 -7 11 -12 27 -11 20 0 31 9 40 30
10 23 12 25 14 9 1 -17 2 -16 9 5 l7 25 13 -30 c10 -23 14 -26 17 -13 3 10 11
18 20 18 13 0 13 -3 3 -15 -10 -12 -9 -16 4 -21 16 -6 15 -8 -1 -24 -10 -10
-22 -15 -26 -13 -4 3 -26 2 -47 -2 -33 -6 -40 -11 -40 -30 0 -13 6 -26 13 -29
13 -6 -35 2 -68 11 -18 5 -18 7 5 15 24 9 24 10 6 24 -15 10 -16 14 -5 15 8 0
5 5 -8 11 -17 8 -27 8 -39 -3 -14 -12 -14 -14 2 -26 16 -12 15 -13 -14 -13
-32 0 -129 34 -147 51 -6 7 -6 12 0 17 21 15 35 64 29 102 -6 39 -6 39 27 38
19 0 44 -9 55 -20z m124 12 c0 -5 -2 -10 -4 -10 -3 0 -8 5 -11 10 -3 6 -1 10
4 10 6 0 11 -4 11 -10z m173 -30 c-3 -11 -10 -20 -15 -20 -6 0 -8 7 -5 15 4 8
2 17 -3 20 -19 12 -10 26 9 15 13 -6 17 -17 14 -30z m-243 -16 c0 -8 -4 -12
-10 -9 -5 3 -10 10 -10 16 0 5 5 9 10 9 6 0 10 -7 10 -16z m-1080 -4 c0 -5 -4
-10 -10 -10 -5 0 -10 5 -10 10 0 6 5 10 10 10 6 0 10 -4 10 -10z m1130 -10 c0
-5 -7 -10 -15 -10 -8 0 -15 5 -15 10 0 6 7 10 15 10 8 0 15 -4 15 -10z m-2717
-12 c-6 -11 -55 -10 -73 2 -11 7 -1 9 31 7 26 -1 45 -5 42 -9z m382 2 c3 -5
-1 -10 -9 -10 -9 0 -16 5 -16 10 0 6 4 10 9 10 6 0 13 -4 16 -10z m268 3 c-7
-2 -19 -2 -25 0 -7 3 -2 5 12 5 14 0 19 -2 13 -5z m667 -2 c0 -5 -9 -11 -20
-14 -11 -3 -20 -1 -20 3 0 5 8 11 18 13 9 3 18 5 20 6 1 0 2 -3 2 -8z m-834
-12 c3 -6 1 -16 -6 -22 -10 -9 -11 -9 -6 1 4 7 1 12 -8 12 -8 0 -18 5 -21 10
-3 6 3 10 14 10 11 0 23 -5 27 -11z m617 1 c15 -1 16 -4 7 -16 -10 -11 -10
-14 1 -15 8 0 2 -5 -14 -11 -15 -5 -25 -14 -22 -18 3 -5 0 -12 -6 -16 -9 -5
-10 0 -6 16 6 22 -17 60 -25 41 -4 -11 -108 -2 -108 10 0 13 32 18 95 14 33
-2 68 -5 78 -5z m-423 -10 c0 -5 -4 -10 -10 -10 -5 0 -10 5 -10 10 0 6 5 10
10 10 6 0 10 -4 10 -10z m183 -5 c1 -6 -14 -11 -33 -12 -19 0 -25 1 -12 4 12
2 22 9 22 15 0 12 21 6 23 -7z m550 -2 c-7 -2 -19 -2 -25 0 -7 3 -2 5 12 5 14
0 19 -2 13 -5z m-2063 -13 c0 -5 -4 -10 -10 -10 -5 0 -10 5 -10 10 0 6 5 10
10 10 6 0 10 -4 10 -10z m1230 0 c-25 -8 -25 -8 4 -9 34 -1 27 -14 -9 -16 -13
0 -22 1 -20 4 3 2 1 9 -5 15 -6 9 0 12 23 13 30 1 30 1 7 -7z m320 0 c0 -5 -7
-10 -16 -10 -8 0 -12 5 -9 10 3 6 10 10 16 10 5 0 9 -4 9 -10z m-186 -6 c29
-11 17 -20 -21 -16 -31 4 -34 6 -18 13 11 4 21 8 22 8 1 1 8 -2 17 -5z m61 -4
c3 -5 1 -10 -4 -10 -6 0 -11 5 -11 10 0 6 2 10 4 10 3 0 8 -4 11 -10z m1550 1
c3 -5 2 -12 -3 -15 -5 -3 -9 1 -9 9 0 17 3 19 12 6z m-2725 -5 c0 -3 -4 -8
-10 -11 -5 -3 -10 -1 -10 4 0 6 5 11 10 11 6 0 10 -2 10 -4z m264 -12 c5 -12
2 -15 -10 -10 -8 3 -18 6 -20 6 -3 0 -2 5 1 10 9 15 22 12 29 -6z m602 9 c-15
-4 -16 -7 -5 -15 11 -8 10 -9 -3 -4 -10 3 -20 1 -24 -5 -3 -6 -12 -8 -20 -5
-9 3 -14 -1 -14 -12 0 -11 -3 -13 -8 -6 -5 8 -25 9 -62 4 -30 -4 -56 -3 -58 1
-2 5 -11 9 -20 9 -15 1 -15 2 -2 9 26 15 83 24 76 13 -4 -7 8 -10 34 -9 22 1
40 5 40 10 0 4 4 5 10 2 5 -3 18 -1 27 4 10 6 25 10 33 10 9 -1 8 -3 -4 -6z
m443 -30 c-24 -7 -63 -12 -87 -11 -23 1 -48 -4 -54 -10 -17 -17 -33 -15 -18 3
10 12 10 15 -3 15 -25 0 -67 -22 -61 -31 3 -5 -3 -9 -13 -9 -16 0 -16 2 3 21
23 23 109 38 187 33 26 -2 46 0 43 5 -3 4 7 6 21 3 25 -5 23 -6 -18 -19z
m1458 -5 c-3 -8 -6 -5 -6 6 -1 11 2 17 5 13 3 -3 4 -12 1 -19z m-2363 4 c2 -4
-12 -6 -32 -4 -56 5 -62 10 -15 11 23 1 44 -3 47 -7z m241 -25 c-8 -4 -19 -6
-23 -3 -4 2 -14 1 -22 -4 -8 -5 -22 -2 -37 7 -13 8 -32 13 -43 10 -12 -3 -18
-1 -14 5 4 6 26 8 49 5 24 -2 49 -1 56 3 7 5 20 3 30 -3 16 -10 16 -13 4 -20z
m740 23 c3 -5 2 -10 -4 -10 -5 0 -13 5 -16 10 -3 6 -2 10 4 10 5 0 13 -4 16
-10z m-915 -15 c0 -8 -7 -15 -15 -15 -16 0 -20 12 -8 23 11 12 23 8 23 -8z
m570 5 c0 -5 -9 -10 -19 -10 -11 0 -21 -4 -23 -9 -4 -11 -108 -21 -108 -10 0
5 10 11 23 14 20 5 102 21 120 24 4 1 7 -3 7 -9z m-660 -10 c0 -5 -7 -10 -15
-10 -8 0 -15 5 -15 10 0 6 7 10 15 10 8 0 15 -4 15 -10z m1024 -25 c-4 -8 -10
-15 -15 -15 -4 0 -6 7 -3 15 4 8 10 15 15 15 4 0 6 -7 3 -15z m2276 5 c0 -5
-4 -10 -10 -10 -5 0 -10 5 -10 10 0 6 5 10 10 10 6 0 10 -4 10 -10z m-1990
-10 c0 -5 -5 -10 -11 -10 -5 0 -7 5 -4 10 3 6 8 10 11 10 2 0 4 -4 4 -10z
m1217 4 c-3 -3 -12 -4 -19 -1 -8 3 -5 6 6 6 11 1 17 -2 13 -5z m86 -6 c2 -7 1
-22 -4 -33 -6 -17 -8 -17 -8 -2 -1 9 -8 17 -16 17 -8 0 -15 7 -15 15 0 18 36
20 43 3z m731 -4 c4 -11 1 -14 -11 -12 -9 2 -18 9 -21 16 -6 18 25 15 32 -4z
m-2896 -1 c-10 -2 -26 -2 -35 0 -10 3 -2 5 17 5 19 0 27 -2 18 -5z m-158 -12
c0 -6 -4 -13 -10 -16 -5 -3 -10 1 -10 9 0 9 5 16 10 16 6 0 10 -4 10 -9z
m2378 -10 c3 -8 -1 -12 -9 -9 -7 2 -15 10 -17 17 -3 8 1 12 9 9 7 -2 15 -10
17 -17z"/>
<path d="M1585 2579 c-11 -17 1 -21 15 -4 8 9 8 15 2 15 -6 0 -14 -5 -17 -11z"/>
<path d="M1620 2579 c0 -5 5 -7 10 -4 6 3 10 8 10 11 0 2 -4 4 -10 4 -5 0 -10
-5 -10 -11z"/>
<path d="M665 2120 c-4 -6 -11 -7 -17 -4 -7 4 -8 2 -4 -5 6 -9 11 -9 22 0 14
11 18 19 10 19 -3 0 -8 -5 -11 -10z"/>
<path d="M625 2070 c-3 -5 -1 -10 4 -10 6 0 11 5 11 10 0 6 -2 10 -4 10 -3 0
-8 -4 -11 -10z"/>
<path d="M660 2060 c-14 -10 -22 -21 -19 -24 3 -3 16 5 29 19 28 30 24 32 -10
5z"/>
<path d="M3785 1640 c-3 -5 -2 -10 4 -10 6 0 19 -9 30 -21 12 -13 21 -17 26
-10 3 6 1 11 -5 11 -6 0 -8 5 -5 10 3 6 -2 10 -12 10 -15 0 -16 2 -3 10 12 8
11 10 -7 10 -12 0 -25 -4 -28 -10z"/>
<path d="M3890 1610 c0 -11 5 -20 10 -20 6 0 10 9 10 20 0 11 -4 20 -10 20 -5
0 -10 -9 -10 -20z"/>
<path d="M3616 1491 c-4 -7 -5 -15 -2 -18 9 -9 19 4 14 18 -4 11 -6 11 -12 0z"/>
<path d="M3736 1461 c-4 -7 -5 -15 -2 -18 9 -9 19 4 14 18 -4 11 -6 11 -12 0z"/>
<path d="M4132 1439 c-7 -11 -11 -23 -9 -25 7 -7 29 24 25 36 -2 6 -9 1 -16
-11z"/>
<path d="M4020 1341 c0 -10 30 -24 37 -17 3 3 2 9 -2 15 -8 13 -35 15 -35 2z"/>
<path d="M4026 1291 c8 -14 14 -34 14 -43 0 -11 7 -18 18 -17 10 0 12 3 5 6
-19 7 -16 30 4 37 15 6 15 8 3 16 -13 8 -13 10 -1 10 25 0 2 13 -28 15 -28 2
-28 2 -15 -24z"/>
<path d="M4234 1234 c5 -45 16 -74 16 -42 0 9 6 19 13 21 9 4 8 8 -3 16 -11 8
-11 11 -2 11 10 0 10 5 2 20 -19 35 -32 23 -26 -26z"/>
<path d="M4144 1245 c0 -14 4 -25 9 -25 4 0 7 -7 7 -15 0 -8 5 -15 11 -15 6 0
9 7 5 15 -3 8 -2 15 3 15 4 0 6 11 3 25 -6 35 -40 35 -38 0z"/>
<path d="M4011 1243 c1 -10 5 -31 9 -48 7 -28 8 -28 9 12 0 23 -3 45 -9 48 -5
3 -9 -2 -9 -12z"/>
<path d="M4307 1253 c-11 -10 -8 -51 3 -58 7 -4 7 -11 2 -18 -6 -8 -4 -25 4
-47 l12 -35 1 33 c1 34 9 39 31 20 8 -7 5 -1 -8 13 -12 14 -22 36 -22 50 0 28
-13 52 -23 42z"/>
<path d="M3950 1114 c0 -8 5 -12 10 -9 6 3 10 10 10 16 0 5 -4 9 -10 9 -5 0
-10 -7 -10 -16z"/>
<path d="M4340 1026 c0 -19 29 -80 35 -74 5 5 -19 75 -28 84 -4 4 -7 0 -7 -10z"/>
<path d="M4198 983 c6 -2 18 -2 25 0 6 3 1 5 -13 5 -14 0 -19 -2 -12 -5z"/>
<path d="M4218 939 c-24 -13 -23 -25 3 -32 13 -3 22 0 26 9 8 22 -9 35 -29 23z"/>
<path d="M4378 910 c2 -16 6 -30 8 -30 2 0 4 14 4 30 0 17 -4 30 -8 30 -5 0
-7 -13 -4 -30z"/>
<path d="M4295 900 c3 -5 8 -10 11 -10 2 0 4 5 4 10 0 6 -5 10 -11 10 -5 0 -7
-4 -4 -10z"/>
<path d="M4310 860 c0 -6 7 -10 15 -10 8 0 15 2 15 4 0 2 -7 6 -15 10 -8 3
-15 1 -15 -4z"/>
<path d="M4301 624 c0 -11 3 -14 6 -6 3 7 2 16 -1 19 -3 4 -6 -2 -5 -13z"/>
<path d="M2026 1541 c-4 -7 -5 -15 -2 -18 9 -9 19 4 14 18 -4 11 -6 11 -12 0z"/>
<path d="M1638 1393 c7 -3 16 -2 19 1 4 3 -2 6 -13 5 -11 0 -14 -3 -6 -6z"/>
<path d="M1236 1271 c-4 -7 -5 -15 -2 -18 9 -9 19 4 14 18 -4 11 -6 11 -12 0z"/>
<path d="M2783 833 c9 -2 23 -2 30 0 6 3 -1 5 -18 5 -16 0 -22 -2 -12 -5z"/>
<path d="M2867 800 c3 -11 9 -20 15 -20 5 0 4 9 -2 20 -6 11 -12 20 -14 20 -2
0 -2 -9 1 -20z"/>
<path d="M2905 710 c-3 -5 1 -10 10 -10 9 0 13 5 10 10 -3 6 -8 10 -10 10 -2
0 -7 -4 -10 -10z"/>
<path d="M2865 680 c3 -5 10 -10 16 -10 5 0 9 5 9 10 0 6 -7 10 -16 10 -8 0
-12 -4 -9 -10z"/>
<path d="M2402 844 c-12 -8 -22 -20 -22 -26 0 -6 9 -3 21 8 13 12 36 19 64 19
24 0 41 3 38 8 -8 13 -78 7 -101 -9z"/>
<path d="M2053 601 c-8 -13 -9 -22 -3 -26 11 -7 24 18 18 35 -2 6 -9 1 -15 -9z"/>
<path d="M2155 500 c-3 -5 -1 -10 4 -10 6 0 11 5 11 10 0 6 -2 10 -4 10 -3 0
-8 -4 -11 -10z"/>
<path d="M1563 583 c9 -2 25 -2 35 0 9 3 1 5 -18 5 -19 0 -27 -2 -17 -5z"/>
<path d="M3120 816 c0 -9 5 -16 11 -16 5 0 7 -5 3 -11 -3 -6 -1 -15 6 -19 8
-5 13 -22 13 -39 0 -18 6 -31 13 -31 21 0 27 -20 25 -82 l-2 -58 47 0 47 0 -7
38 c-3 20 -6 56 -6 79 0 41 -1 42 -37 45 -31 3 -38 8 -49 38 -7 19 -13 29 -13
23 -1 -7 -5 -13 -10 -13 -6 0 -9 12 -8 27 1 19 -3 28 -15 31 -11 2 -18 -3 -18
-12z m128 -118 c-3 -7 -14 -14 -26 -16 -16 -3 -20 1 -16 12 7 19 48 22 42 4z"/>
<path d="M1207 553 c-4 -3 -7 -11 -7 -17 0 -6 5 -5 12 2 6 6 9 14 7 17 -3 3
-9 2 -12 -2z"/>
<path d="M3640 132 c0 -5 7 -13 16 -16 10 -4 14 -1 12 6 -5 15 -28 23 -28 10z"/>
<path d="M2190 170 c0 -5 5 -10 10 -10 6 0 10 5 10 10 0 6 -4 10 -10 10 -5 0
-10 -4 -10 -10z"/>
</g>
</svg>
